<?xml version="1.0" encoding="UTF-8" standalone="no"?>
<svg
   xmlns:dc="http://purl.org/dc/elements/1.1/"
   xmlns:cc="http://creativecommons.org/ns#"
   xmlns:rdf="http://www.w3.org/1999/02/22-rdf-syntax-ns#"
   xmlns:svg="http://www.w3.org/2000/svg"
   xmlns="http://www.w3.org/2000/svg"
   version="1.1"
   id="svg132511"
   viewBox="0 0 633.28839 596.92586"
   height="168.46574mm"
   width="178.72806mm">
  <defs
     id="defs132513" />
  <metadata
     id="metadata132516">
    <rdf:RDF>
      <cc:Work
         rdf:about="">
        <dc:format>image/svg+xml</dc:format>
        <dc:type
           rdf:resource="http://purl.org/dc/dcmitype/StillImage" />
        <dc:title></dc:title>
      </cc:Work>
    </rdf:RDF>
  </metadata>
  <g
     transform="translate(-56.212946,-183.36575)"
     id="layer1">
    <path
       transform="translate(56.212946,183.36575)"
       id="path3297"
       d="M 288.37305 500.3125 C 280.34527 500.51904 272.54747 502.58628 266.625 506.38672 C 255.64249 513.43419 250.07283 527.64374 252.25195 543.05273 C 253.21619 549.8711 256.29685 557.45989 259.63867 561.25195 C 264.58606 566.86587 271.81306 570.63543 280.75195 572.26367 C 285.67562 573.16053 297.82325 572.51362 302.46094 571.10742 C 319.79223 565.85237 328.80036 550.77346 326.29883 531.20312 C 324.61432 518.02461 316.96105 507.08803 306.75 503.26758 C 301.00115 501.11666 294.61687 500.15186 288.37305 500.3125 z M 288.05078 515.08594 C 293.79444 514.93463 299.36523 516.81602 302.55664 520.25781 C 306.8632 524.90222 308.53529 537.85299 305.95117 546.55469 C 304.53736 551.31547 300.15481 556.02402 296.08594 557.1543 C 291.59842 558.40088 284.8576 558.07879 281.33789 556.44922 C 274.50066 553.28368 271.41602 547.11006 271.41602 536.58789 C 271.41602 525.56979 275.50874 517.82657 282.33203 515.93164 C 284.20308 515.41202 286.13623 515.13637 288.05078 515.08594 z "
       style="fill:#5972b2;fill-opacity:1" />
    <path
       style="fill:#3f87c6;fill-opacity:1"
       d="m 422.46683,643.12248 c -16.58658,-8.16984 -40.33037,-19.91111 -52.76398,-26.0917 l -22.60657,-11.23744 -31.55059,15.77914 -31.55062,15.77916 -108.13734,-54.02116 C 116.38219,553.61884 65.577621,528.21665 62.958683,526.88117 L 58.196988,524.453 58.392992,414.04613 c 0.107796,-60.72377 0.19708,-112.27532 0.198407,-114.559 l 0.0027,-4.15214 112.35492,-55.96428 c 61.79522,-30.78037 112.77514,-55.98259 113.28871,-56.00494 0.51357,-0.0223 51.55656,25.24216 113.42887,56.14337 l 112.4951,56.18401 0,114.88093 c 0,100.40576 -0.14661,114.88094 -1.16351,114.88094 -17.3843,7.91779 -35.95575,17.3824 -51.3038,25.04323 l -42.14442,21.07516 -16.38183,-7.67959 c -9.01002,-4.22377 -16.63932,-7.91177 -16.95401,-8.19553 -0.31469,-0.28377 21.56077,-11.5778 48.61214,-25.09786 l 49.18431,-24.58192 -0.20155,-96.03112 -0.20156,-96.0311 -97.21799,-48.54907 c -53.46988,-26.70199 -97.66497,-48.57604 -98.21128,-48.60899 -0.54631,-0.033 -44.89314,21.89057 -98.5485,48.71895 l -97.555199,48.77888 -0.07095,94.76772 c -0.03902,52.12225 0.168674,95.39226 0.461585,96.15558 0.565992,1.47495 193.412064,98.01005 195.792544,98.01005 0.72546,0 14.56896,-6.62686 30.76334,-14.72635 24.70605,-12.35654 29.81808,-14.64427 31.76688,-14.21624 1.2774,0.28056 12.57807,5.51669 25.11261,11.63584 12.53454,6.11915 33.14675,16.13695 45.80493,22.26179 12.65818,6.12483 29.62172,14.3481 37.69677,18.27395 8.07505,3.92584 18.16572,8.80664 22.42372,10.84623 l 7.74182,3.70834 -15.36754,8.48798 c -8.45215,4.66839 -15.86437,8.48524 -16.4716,8.48189 -0.60723,-0.004 -14.6749,-6.69051 -31.26147,-14.86036 z"
       id="path3285" />
    <path
       transform="translate(56.212946,183.36575)"
       id="path3279"
       d="M 238.08398 69.083984 L 238.08398 226.61133 L 238.08398 384.13672 L 273.20312 366.58984 C 292.51776 356.93901 326.35575 340.03366 348.39844 329.02148 L 388.47461 309 L 388.67773 226.74219 L 388.87891 144.48438 L 313.48242 106.7832 L 238.08398 69.083984 z M 269.03906 118.28906 C 269.47708 118.28906 289.83354 128.28926 314.27539 140.51172 L 358.71484 162.73438 L 358.80273 224.23828 C 358.85133 258.06541 358.89062 286.45711 358.89062 287.33008 C 358.89062 288.20306 358.85123 289.27326 358.80273 289.70898 C 358.75423 290.14471 338.71724 300.50214 314.27539 312.72461 C 289.83355 324.94706 269.47708 334.94727 269.03906 334.94727 C 268.51015 334.94727 268.24219 298.55971 268.24219 226.61719 C 268.24219 154.67468 268.51015 118.28906 269.03906 118.28906 z "
       style="fill:#38bc6f;fill-opacity:1" />
    <path
       style="fill:#f37073;fill-opacity:1"
       d="m 197.27822,529.33124 -74.40151,-37.23813 0.005,-81.92587 0.005,-81.92586 74.39651,-37.13358 c 40.91808,-20.42345 74.66436,-37.11916 74.99173,-37.10155 0.32737,0.0176 0.59521,7.13083 0.59521,15.80716 0,11.66093 -0.25872,15.98549 -0.99202,16.58162 -0.54561,0.44354 -27.51083,14.06048 -59.92271,30.25986 l -58.9307,29.4534 0.2031,64.00476 0.2031,64.00476 59.52121,29.8351 59.52121,29.83507 0.21451,16.46754 c 0.11798,9.05715 -0.0605,16.43297 -0.39681,16.39069 -0.33622,-0.0423 -34.09199,-16.834 -75.01283,-37.31497 z"
       id="path3275" />
    <path
       transform="translate(56.212946,183.36575)"
       id="path3271"
       d="M 523.78711 7.7988281 L 523.78711 67.490234 L 523.78711 127.17969 L 559.30078 126.79883 C 587.57151 126.4959 595.89525 126.1671 600.11133 125.18555 C 616.35153 121.40465 625.88604 111.31021 630.98633 92.496094 C 633.44257 83.435594 634.09921 58.803464 632.14258 49.146484 C 627.42807 25.877294 617.20031 14.741194 596.00586 9.8027344 C 592.00387 8.8702444 583.32932 8.5100987 557.31641 8.1992188 L 523.78711 7.7988281 z M 549.18164 29.404297 L 565.65039 29.414062 C 586.80969 29.426163 591.9707 30.660964 597.58789 37.058594 C 609.71446 50.869984 609.00393 87.493327 596.37891 99.404297 C 594.71041 100.97843 591.53324 102.91057 589.31836 103.69727 C 586.00404 104.87449 582.09575 105.17865 567.23633 105.41406 L 549.18164 105.69922 L 549.18164 67.552734 L 549.18164 29.404297 z "
       style="fill:#5972b2;fill-opacity:1" />
    <path
       style="fill:#5972b2;fill-opacity:1"
       d="m 466.51253,773.10618 0,-7.18544 20.27662,0 c 24.68551,0 25.70211,-0.31731 25.74228,-8.03461 l 0.0108,-2.08247 -13.85797,-0.34322 -13.85798,-0.34321 -5.38721,-2.73925 c -4.13794,-2.10402 -5.98039,-3.62531 -7.9451,-6.56018 -4.27333,-6.38344 -4.4367,-7.60203 -4.7793,-35.6486 l -0.3175,-25.99094 9.97786,0 9.97787,0 0.019,23.21328 c 0.0104,12.7673 0.34884,24.64179 0.75207,26.38774 0.40521,1.75455 1.65896,3.97316 2.80297,4.9601 1.91633,1.65321 2.83174,1.78564 12.34261,1.78564 l 10.27276,0 0,-28.17338 0,-28.17338 9.9202,0 9.92021,0 0,36.39803 c 0,21.12665 -0.33596,38.19159 -0.80072,40.67284 -1.61535,8.62397 -6.81802,15.07848 -14.09963,17.49217 -1.99482,0.66124 -10.76223,1.0726 -26.96291,1.2651 l -24.00689,0.28524 0,-7.18546 z"
       id="path3301" />
    <path
       style="fill:#5972b2;fill-opacity:1"
       d="m 624.05547,757.8789 c -16.53878,-1.58788 -26.40439,-7.00003 -33.59694,-18.43086 -7.22992,-11.49025 -9.90846,-22.43923 -9.9293,-40.58787 -0.0118,-10.29955 0.30324,-13.98648 1.66819,-19.52045 3.75451,-15.22199 11.33513,-26.76781 22.16821,-33.7637 7.44833,-4.81007 10.42956,-5.23764 39.32171,-5.63954 l 25.99088,-0.36154 0,10.73135 0,10.73135 -23.21323,0.27606 c -25.33184,0.30127 -26.87504,0.55584 -31.81544,5.2487 -4.60947,4.37851 -7.63382,12.50768 -7.66097,20.59193 l -0.006,1.78563 31.34784,0 31.34781,0 0,10.71382 0,10.71382 -31.45005,0 -31.45008,0 0.53527,4.03515 c 1.39026,10.48021 6.22421,17.38075 14.45841,20.63955 4.38524,1.73554 5.905,1.85937 26.28044,2.14143 l 21.62601,0.29939 0,10.64753 0,10.64755 -19.24516,-0.10726 c -10.58486,-0.0589 -22.45478,-0.41541 -26.37761,-0.79204 z"
       id="path3299" />
    <path
       style="fill:#5972b2;fill-opacity:1"
       d="m 87.163977,715.5261 0,-40.07761 -15.475515,0 -15.475515,0 0,-8.72978 0,-8.72978 42.061656,0 42.061667,0 0,8.72978 0,8.72978 -16.26914,0 -16.26913,0 0,40.07761 0,40.07763 -10.31701,0 -10.317013,0 0,-40.07763 z"
       id="path3293" />
    <path
       style="fill:#5972b2;fill-opacity:1"
       d="m 150.65327,706.79632 0,-48.80739 9.92021,0 9.9202,0 0,13.09467 0,13.09466 11.30903,0.0193 c 19.98385,0.0341 25.73294,1.26821 31.15225,6.68752 5.92904,5.92904 6.19549,7.47094 6.55515,37.93413 l 0.31624,26.78455 -9.98444,0 -9.98443,0 -0.0117,-24.4037 c -0.0127,-26.23809 -0.0949,-26.82278 -4.20981,-29.88251 -1.98326,-1.47471 -3.53871,-1.69293 -13.68989,-1.92069 l -11.45244,-0.25697 0,28.23193 0,28.23192 -9.92019,0 -9.92021,0 0,-48.80741 z"
       id="path3291" />
    <path
       style="fill:#5972b2;fill-opacity:1"
       d="m 260.78272,754.74377 c -10.11151,-1.48157 -19.32014,-8.33446 -23.64875,-17.59896 -7.61207,-16.29203 -3.04906,-38.47199 9.72242,-47.259 6.45473,-4.44098 10.22546,-5.11182 30.97388,-5.51047 l 18.84838,-0.36215 0,7.6219 0,7.62188 -15.85625,0 c -18.91465,0 -21.21878,0.5693 -23.78849,5.87762 -0.89281,1.84431 -1.6233,4.13335 -1.6233,5.08676 l 0,1.73348 20.63403,0 20.63401,0 0,7.53935 0,7.53936 -20.63401,0 c -20.03464,0 -20.63403,0.0457 -20.63403,1.57117 0,3.18187 2.4518,7.58885 5.30723,9.53946 2.83338,1.93555 3.30828,1.99029 19.43258,2.2399 l 16.52823,0.25588 0,7.48188 0,7.4819 -15.67392,-0.0968 c -8.62065,-0.0533 -17.72055,-0.39665 -20.22201,-0.76318 z"
       id="path3289" />
    <path
       style="fill:#5972b2;fill-opacity:1"
       d="m 398.26153,719.86415 0,-35.73956 17.65796,0.0989 c 19.04085,0.10669 25.30937,0.75272 29.83742,3.07502 6.68251,3.42727 8.73265,7.86321 9.4014,20.34206 l 0.4864,9.07592 -9.248,0 -9.24799,0 0,-4.78719 c 0,-9.70358 -3.15472,-12.67237 -13.46598,-12.67237 l -5.5808,0 0,28.17338 0,28.17338 -9.92021,0 -9.9202,0 0,-35.73958 z"
       id="path3287" />
    <path
       style="fill:#5972b2;fill-opacity:1"
       d="m 579.99964,547.67627 0,-59.52122 12.30105,0 12.30105,0 0,59.52122 0,59.52122 -12.30105,0 -12.30105,0 0,-59.52122 z"
       id="path3283" />
    <path
       style="fill:#5972b2;fill-opacity:1"
       d="m 626.48252,577.48087 c -11.16145,-16.34415 -20.29355,-30.09388 -20.29355,-30.55498 0,-0.46109 4.69958,-7.17702 10.44349,-14.92429 5.74392,-7.74726 12.28524,-16.58583 14.53628,-19.64126 2.25103,-3.05541 7.21466,-9.75155 11.03028,-14.8803 l 6.9375,-9.32499 15.52652,0 c 12.29258,0 15.37023,0.20662 14.77591,0.99202 -0.41287,0.54561 -5.21197,6.5275 -10.6646,13.29308 -31.77771,39.42951 -35.66421,44.46805 -35.05038,45.44007 0.35112,0.55599 10.12453,13.68342 21.71869,29.17206 11.59419,15.48864 21.34693,28.60758 21.67289,29.15319 0.46588,0.77995 -2.71366,0.99202 -14.87349,0.99202 l -15.466,0 -20.29354,-29.71662 z"
       id="path3281" />
    <path
       style="fill:#5972b2;fill-opacity:1"
       d="m 614.41608,462.7718 c -10.67902,-1.513 -18.42261,-4.86317 -24.72278,-10.69601 -5.31555,-4.92127 -8.30095,-9.94788 -10.1927,-17.16178 -1.14875,-4.38056 -1.38145,-11.08874 -1.67005,-48.14343 l -0.33533,-43.05369 11.93308,0 11.93307,0 0.23136,41.86326 c 0.26387,47.74598 -0.01,45.74786 7.14282,52.17857 11.19723,10.06726 33.34487,7.18872 39.01419,-5.07072 1.64973,-3.56743 1.69699,-4.70626 1.92213,-46.31423 l 0.23082,-42.65688 11.92784,0 11.92779,0 -0.32515,41.86326 c -0.2751,35.42085 -0.52759,42.71604 -1.64036,47.40474 -2.93576,12.36903 -8.71721,19.64191 -19.83137,24.94706 -3.56865,1.70344 -8.37733,3.48568 -10.68596,3.96054 -5.86764,1.20692 -21.04102,1.70367 -26.8594,0.87931 z"
       id="path3273" />
  </g>
</svg>
